<svg width="600" height="400" viewBox="0 0 600 400" fill="none" xmlns="http://www.w3.org/2000/svg">
<rect width="600" height="400" fill="white"/>
<path d="M47.48 289V231.16H59.24V279.12H84.36V289H47.48ZM116.129 289.8C110.663 289.8 105.929 288.613 101.929 286.24C97.956 283.84 94.876 280.44 92.6894 276.04C90.5294 271.613 89.4494 266.333 89.4494 260.2C89.4494 254.04 90.5427 248.733 92.7294 244.28C94.9427 239.827 98.0494 236.4 102.049 234C106.049 231.573 110.743 230.36 116.129 230.36C121.489 230.36 126.156 231.56 130.129 233.96C134.103 236.36 137.169 239.787 139.329 244.24C141.516 248.693 142.609 254.013 142.609 260.2C142.609 266.307 141.529 271.573 139.369 276C137.236 280.427 134.183 283.84 130.209 286.24C126.236 288.613 121.543 289.8 116.129 289.8ZM116.129 280.2C118.956 280.2 121.396 279.533 123.449 278.2C125.529 276.84 127.129 274.707 128.249 271.8C129.369 268.867 129.929 265.053 129.929 260.36C129.929 255.533 129.356 251.627 128.209 248.64C127.089 245.653 125.489 243.467 123.409 242.08C121.356 240.667 118.929 239.96 116.129 239.96C113.329 239.96 110.889 240.667 108.809 242.08C106.729 243.467 105.116 245.667 103.969 248.68C102.823 251.667 102.249 255.56 102.249 260.36C102.249 265.08 102.823 268.893 103.969 271.8C105.116 274.707 106.729 276.84 108.809 278.2C110.889 279.533 113.329 280.2 116.129 280.2ZM158.16 289.8C156.32 289.8 154.427 289.64 152.48 289.32C150.533 289.027 149.107 288.76 148.2 288.52L148.44 277.84C149.213 278 150.093 278.213 151.08 278.48C152.093 278.747 153.213 278.88 154.44 278.88C157.133 278.88 158.947 278.173 159.88 276.76C160.813 275.32 161.28 273 161.28 269.8V231.16H172.96V272.92C172.96 276.6 172.56 279.693 171.76 282.2C170.96 284.707 169.493 286.6 167.36 287.88C165.227 289.16 162.16 289.8 158.16 289.8ZM177.106 289L197.786 231.16H210.146L230.826 289H219.186L214.466 275.6H193.626L188.826 289H177.106ZM196.266 265.4H211.626L203.986 242.4L196.266 265.4ZM281.598 289.8C276.131 289.8 271.398 288.613 267.398 286.24C263.425 283.84 260.345 280.44 258.158 276.04C255.998 271.613 254.918 266.333 254.918 260.2C254.918 254.04 256.011 248.733 258.198 244.28C260.411 239.827 263.518 236.4 267.518 234C271.518 231.573 276.211 230.36 281.598 230.36C286.958 230.36 291.625 231.56 295.598 233.96C299.571 236.36 302.638 239.787 304.798 244.24C306.985 248.693 308.078 254.013 308.078 260.2C308.078 266.307 306.998 271.573 304.838 276C302.705 280.427 299.651 283.84 295.678 286.24C291.705 288.613 287.011 289.8 281.598 289.8ZM281.598 280.2C284.425 280.2 286.865 279.533 288.918 278.2C290.998 276.84 292.598 274.707 293.718 271.8C294.838 268.867 295.398 265.053 295.398 260.36C295.398 255.533 294.825 251.627 293.678 248.64C292.558 245.653 290.958 243.467 288.878 242.08C286.825 240.667 284.398 239.96 281.598 239.96C278.798 239.96 276.358 240.667 274.278 242.08C272.198 243.467 270.585 245.667 269.438 248.68C268.291 251.667 267.718 255.56 267.718 260.36C267.718 265.08 268.291 268.893 269.438 271.8C270.585 274.707 272.198 276.84 274.278 278.2C276.358 279.533 278.798 280.2 281.598 280.2ZM318.418 289V231.16H329.978L356.378 269.44V231.16H368.058V289H357.538L330.058 249.2V289H318.418ZM380.996 289V231.16H392.756V279.12H417.876V289H380.996ZM427.168 289V231.16H438.808V289H427.168ZM451.777 289V231.16H463.337L489.737 269.44V231.16H501.417V289H490.897L463.417 249.2V289H451.777ZM514.355 289V231.16H554.075L554.035 241H526.075V255.04H550.355V264.68H525.995V279.04L554.475 279.08V289H514.355Z" fill="black"/>
<path d="M188 153.859C188 131.299 160.009 113 125.5 113C90.9913 113 63 131.382 63 153.859V156.282C63 180.179 87.482 199.564 125.5 199.564C163.769 199.564 188 180.179 188 156.282V153.859Z" fill="#28316B"/>
<path d="M185.655 153.855C185.655 175.078 158.749 192.291 125.578 192.291C92.3223 192.291 65.4172 175.078 65.4172 153.855C65.4172 132.632 92.3223 115.419 125.494 115.419C158.749 115.336 185.655 132.632 185.655 153.855Z" fill="#50B4E9"/>
<path d="M105.583 141.685C105.583 141.768 104.915 142.353 105.332 142.855C106.252 144.108 109.176 144.776 112.184 144.108C113.939 143.69 116.195 141.935 118.367 140.181C120.707 138.259 123.13 136.421 125.469 135.669C127.976 134.833 129.564 135.251 130.65 135.502C131.82 135.836 133.157 136.588 135.329 138.259C139.423 141.351 155.967 155.806 158.808 158.312C161.148 157.31 171.342 152.881 185.212 149.79C184.042 142.353 179.53 135.585 172.679 130.071C163.237 134.081 151.539 136.17 140.175 130.572C140.092 130.572 133.992 127.647 127.893 127.815C118.869 127.982 114.941 131.909 110.764 136.087L105.583 141.685Z" fill="white"/>
<path d="M158.165 159.852C157.998 159.685 138.78 142.891 134.351 139.548C131.845 137.627 130.424 137.209 128.92 136.958C128.168 136.875 127.082 137.042 126.33 137.209C124.325 137.794 121.651 139.548 119.311 141.387C116.888 143.308 114.548 145.147 112.46 145.648C109.702 146.233 106.443 145.564 104.856 144.478C104.271 144.06 103.77 143.559 103.603 143.141C103.018 141.804 104.104 140.802 104.271 140.635L109.619 134.869L111.457 133.031C109.786 133.282 108.198 133.699 106.611 134.117C104.689 134.702 102.851 135.203 100.929 135.203C100.177 135.203 95.999 134.535 95.1634 134.284C90.4007 133.031 86.2229 131.694 79.8726 128.77C72.3526 134.368 67.2557 141.387 65.8352 149.157C66.9214 149.408 68.6761 149.993 69.4281 150.16C86.5571 154.004 91.8212 157.847 92.8238 158.683C93.9101 157.513 95.4141 156.761 97.0852 156.761C99.007 156.761 100.678 157.68 101.681 159.184C102.683 158.432 104.02 157.764 105.775 157.764C106.527 157.764 107.363 157.931 108.198 158.181C110.12 158.85 111.123 160.103 111.624 161.273C112.292 160.939 113.044 160.772 113.964 160.772C114.883 160.772 115.885 160.939 116.804 161.356C119.98 162.693 120.481 165.785 120.147 168.125H120.815C124.575 168.125 127.583 171.133 127.583 174.893C127.583 176.062 127.249 177.149 126.748 178.068C127.75 178.653 130.341 179.906 132.597 179.655C134.435 179.405 135.103 178.82 135.354 178.485C135.521 178.235 135.688 177.984 135.521 177.733L130.675 172.386C130.675 172.386 129.839 171.634 130.173 171.383C130.424 171.049 130.925 171.55 131.26 171.801C133.683 173.89 136.691 176.981 136.691 176.981C136.774 176.981 136.941 177.399 138.028 177.566C138.947 177.733 140.702 177.65 141.871 176.647C142.206 176.397 142.456 176.062 142.707 175.812L142.623 175.895C143.877 174.308 142.456 172.72 142.456 172.72L137.025 166.37C137.025 166.37 136.189 165.618 136.524 165.284C136.774 165.033 137.276 165.451 137.61 165.701C139.365 167.205 141.955 169.712 144.294 172.052C144.796 172.386 146.885 173.723 149.726 171.885C151.397 170.798 151.731 169.378 151.731 168.375C151.647 167.038 150.561 166.036 150.561 166.036L142.874 158.348C142.874 158.348 142.038 157.68 142.373 157.262C142.623 156.928 143.125 157.429 143.459 157.68C145.882 159.769 152.566 165.785 152.566 165.785C152.65 165.869 154.99 167.456 157.747 165.701C158.75 165.033 159.418 164.114 159.502 162.944C159.585 161.022 158.165 159.852 158.165 159.852Z" fill="white"/>
<path d="M120.909 169.689C119.739 169.689 118.402 170.357 118.235 170.274C118.151 170.19 118.319 169.772 118.402 169.438C118.486 169.187 120.073 164.425 116.23 162.837C113.305 161.584 111.551 163.004 110.882 163.673C110.715 163.84 110.631 163.84 110.631 163.589C110.548 162.754 110.214 160.414 107.707 159.662C104.114 158.576 101.774 161.082 101.19 162.002C100.939 159.913 99.1842 158.325 97.0953 158.325C94.7557 158.325 92.9175 160.163 92.9175 162.503C92.9175 164.842 94.7557 166.681 97.0953 166.681C98.1815 166.681 99.2677 166.263 100.02 165.511V165.678C99.8526 166.681 99.5184 170.524 103.446 172.028C105.033 172.613 106.37 172.195 107.456 171.36C107.79 171.109 107.874 171.193 107.79 171.527C107.623 172.53 107.79 174.535 110.715 175.788C112.887 176.707 114.224 175.788 115.06 174.953C115.394 174.619 115.561 174.702 115.561 175.203C115.645 178.044 117.984 180.217 120.825 180.217C123.75 180.217 126.089 177.877 126.089 174.953C126.173 172.028 123.833 169.689 120.909 169.689Z" fill="white"/>
<path d="M120.909 179.843C118.235 179.843 116.146 177.754 116.063 175.164C116.063 174.913 116.063 174.328 115.561 174.328C115.394 174.328 115.144 174.412 114.976 174.662C114.308 175.247 113.556 175.748 112.47 175.748C111.968 175.748 111.467 175.665 110.882 175.414C108.125 174.244 108.041 172.323 108.208 171.571C108.208 171.404 108.208 171.153 108.125 170.986L107.958 170.819H107.791C107.624 170.819 107.456 170.902 107.289 170.986C106.454 171.571 105.702 171.821 104.95 171.821C104.532 171.821 104.114 171.738 103.613 171.571C99.9364 170.15 100.271 166.641 100.438 165.638C100.438 165.387 100.438 165.304 100.271 165.137L99.9364 164.97L99.6857 165.22C98.9337 165.889 98.0146 166.307 97.0119 166.307C94.923 166.307 93.1683 164.635 93.1683 162.463C93.1683 160.291 94.923 158.619 97.0119 158.619C98.9337 158.619 100.521 160.04 100.772 161.962L100.939 162.964L101.524 162.129C101.607 162.045 103.112 159.706 105.952 159.706C106.454 159.706 107.039 159.789 107.624 159.956C109.88 160.625 110.297 162.714 110.297 163.549C110.381 164.051 110.715 164.051 110.799 164.051C110.966 164.051 111.133 163.967 111.216 163.8C111.634 163.382 112.553 162.63 114.057 162.63C114.726 162.63 115.394 162.797 116.146 163.131C119.739 164.635 118.068 169.231 118.068 169.315C117.734 170.067 117.734 170.401 118.068 170.568L118.235 170.651H118.319C118.486 170.651 118.653 170.568 118.987 170.484C119.489 170.317 120.241 170.067 120.909 170.067C123.583 170.067 125.839 172.323 125.839 174.996C125.755 177.67 123.583 179.843 120.909 179.843ZM158.927 157.867C152.995 152.687 139.291 140.738 135.615 137.981C133.526 136.393 132.022 135.558 130.769 135.14C130.184 134.973 129.348 134.806 128.345 134.806C127.426 134.806 126.424 134.973 125.337 135.307C122.914 136.059 120.575 137.981 118.235 139.819L118.152 139.903C115.979 141.574 113.807 143.412 112.052 143.746C111.3 143.914 110.548 143.997 109.796 143.997C107.874 143.997 106.203 143.412 105.618 142.66C105.535 142.493 105.618 142.326 105.785 141.992V141.908L110.966 136.31C115.06 132.216 118.904 128.372 127.761 128.121H128.178C133.693 128.121 139.208 130.628 139.876 130.879C145.057 133.385 150.404 134.722 155.835 134.722C161.434 134.722 167.199 133.302 173.299 130.545C172.63 129.96 171.878 129.458 171.21 128.873C165.946 131.213 160.849 132.383 155.919 132.383C150.906 132.383 145.892 131.129 141.046 128.79C140.795 128.706 134.696 125.782 128.345 125.782H127.844C120.408 125.949 116.146 128.623 113.389 130.962C110.632 131.046 108.292 131.714 106.12 132.299C104.198 132.801 102.61 133.302 101.023 133.302C100.354 133.302 99.1844 133.218 99.1008 133.218C97.2626 133.135 88.0714 130.879 80.7185 128.121C79.9664 128.623 79.2144 129.208 78.546 129.793C86.1496 132.884 95.5079 135.307 98.4324 135.558C99.2679 135.641 100.103 135.725 101.023 135.725C102.944 135.725 104.866 135.14 106.788 134.639C107.874 134.305 109.128 133.97 110.381 133.72L109.378 134.722L104.114 140.488C103.696 140.906 102.777 142.075 103.362 143.412C103.613 143.997 104.114 144.498 104.783 145C106.036 145.835 108.292 146.42 110.381 146.42C111.216 146.42 111.968 146.337 112.637 146.17C114.893 145.668 117.149 143.83 119.656 141.825C121.661 140.237 124.418 138.315 126.591 137.73C127.176 137.563 127.928 137.48 128.513 137.48H129.014C130.434 137.647 131.771 138.148 134.278 139.986C138.623 143.245 157.924 160.123 158.091 160.291C158.091 160.291 159.345 161.377 159.261 163.131C159.178 164.134 158.676 164.97 157.757 165.555C156.922 166.056 156.086 166.307 155.251 166.307C153.997 166.307 153.078 165.722 152.995 165.638C152.911 165.555 146.31 159.539 143.887 157.533C143.469 157.199 143.135 156.948 142.717 156.948C142.55 156.948 142.299 157.032 142.216 157.199C141.798 157.7 142.299 158.285 142.801 158.787L150.488 166.557C150.488 166.557 151.407 167.476 151.574 168.646C151.658 169.899 150.989 170.986 149.736 171.821C148.817 172.406 147.898 172.74 146.978 172.74C145.809 172.74 144.973 172.239 144.806 172.072L143.72 170.986C141.714 168.98 139.626 166.975 138.122 165.638C137.537 165.22 137.119 164.886 136.701 164.886C136.534 164.886 136.367 164.97 136.2 165.053C136.033 165.22 135.866 165.555 136.367 166.139C136.534 166.39 136.785 166.557 136.785 166.557L142.383 172.908C142.466 172.991 143.553 174.328 142.466 175.581L142.299 175.832L141.798 176.333C140.879 177.085 139.542 177.169 139.041 177.169C138.79 177.169 138.539 177.169 138.289 177.085C137.704 177.002 137.37 176.835 137.202 176.584L137.119 176.5C136.785 176.166 133.944 173.325 131.604 171.32C131.27 171.069 130.936 170.735 130.518 170.735C130.351 170.735 130.184 170.819 130.017 170.986C129.515 171.487 130.267 172.239 130.518 172.573L135.281 177.837C135.281 177.921 135.197 178.004 135.114 178.172C134.946 178.422 134.362 179.007 132.607 179.174H131.938C130.1 179.174 128.262 178.339 127.259 177.754C127.677 176.835 127.928 175.748 127.928 174.746C127.928 170.819 124.753 167.56 120.742 167.56H120.491C120.658 165.722 120.408 162.379 116.898 160.875C115.896 160.458 114.893 160.207 113.89 160.207C113.138 160.207 112.386 160.374 111.718 160.625C110.966 159.204 109.796 158.202 108.208 157.617C107.456 157.533 106.621 157.366 105.702 157.366C104.281 157.366 102.861 157.784 101.691 158.619C100.521 157.199 98.7666 156.363 97.0119 156.363C95.4243 156.363 93.9203 157.032 92.7505 158.118C91.2465 156.948 85.314 153.188 69.5219 149.595C68.7699 149.428 67.0152 148.927 65.929 148.593C65.7619 149.428 65.5948 150.347 65.5112 151.183C65.5112 151.183 68.4357 151.851 69.0206 152.018C85.2305 155.611 90.5781 159.371 91.4972 160.04C91.163 160.792 90.9959 161.544 90.9959 162.379C90.9959 165.722 93.7532 168.479 97.0955 168.479C97.4297 168.479 97.8475 168.479 98.1817 168.395C98.683 170.819 100.271 172.74 102.777 173.66C103.529 173.91 104.198 174.077 104.95 174.077C105.451 174.077 105.869 173.994 106.37 173.91C106.788 175.08 107.874 176.5 110.13 177.42C110.966 177.754 111.718 177.921 112.553 177.921C113.222 177.921 113.807 177.837 114.392 177.587C115.478 180.26 118.068 182.015 120.993 182.015C122.914 182.015 124.753 181.263 126.089 179.843C127.259 180.511 129.682 181.681 132.105 181.681C132.44 181.681 132.69 181.681 133.025 181.597C135.448 181.263 136.618 180.344 137.119 179.592C137.202 179.425 137.286 179.341 137.37 179.174C137.954 179.341 138.539 179.508 139.291 179.508C140.628 179.508 141.882 179.091 143.218 178.088C144.472 177.169 145.391 175.832 145.558 174.746V174.662C145.976 174.746 146.394 174.829 146.895 174.829C148.315 174.829 149.652 174.412 150.906 173.576C153.412 171.905 153.83 169.816 153.83 168.395C154.248 168.479 154.749 168.563 155.167 168.563C156.42 168.563 157.757 168.145 158.927 167.393C160.515 166.39 161.434 164.886 161.517 163.131C161.601 161.962 161.35 160.708 160.682 159.706C164.859 157.867 174.385 154.442 185.665 151.851C185.581 151.016 185.498 150.097 185.331 149.261C171.628 152.353 161.434 156.698 158.927 157.867Z" fill="#28316B"/>
<path d="M343.887 116.104C335.795 112.318 327.144 109.567 318.098 108C316.988 110.008 315.69 112.71 314.795 114.859C305.18 113.413 295.653 113.413 286.214 114.859C285.32 112.71 283.992 110.008 282.872 108C273.817 109.567 265.155 112.328 257.064 116.124C240.743 140.786 236.319 164.836 238.531 188.545C249.355 196.628 259.846 201.539 270.159 204.752C272.706 201.248 274.977 197.522 276.933 193.596C273.207 192.18 269.638 190.433 266.266 188.404C267.161 187.742 268.036 187.049 268.881 186.336C289.449 195.956 311.796 195.956 332.118 186.336C332.974 187.049 333.849 187.742 334.734 188.404C331.351 190.443 327.773 192.19 324.047 193.606C326.003 197.522 328.264 201.258 330.821 204.762C341.144 201.549 351.644 196.638 362.469 188.545C365.064 161.061 358.035 137.232 343.887 116.104ZM279.735 173.964C273.561 173.964 268.498 168.2 268.498 161.181C268.498 154.162 273.453 148.388 279.735 148.388C286.018 148.388 291.081 154.152 290.973 161.181C290.983 168.2 286.018 173.964 279.735 173.964ZM321.264 173.964C315.09 173.964 310.027 168.2 310.027 161.181C310.027 154.162 314.982 148.388 321.264 148.388C327.547 148.388 332.61 154.152 332.502 161.181C332.502 168.2 327.547 173.964 321.264 173.964Z" fill="#5865F2"/>
<path d="M510.483 189.624C505.579 189.624 500.966 187.715 497.498 184.248L478.75 165.499C477.433 164.179 475.139 164.183 473.823 165.499L455.006 184.317C451.538 187.783 446.926 189.693 442.021 189.693H438.327L462.072 213.438C469.488 220.853 481.512 220.853 488.928 213.438L512.741 189.624H510.483Z" fill="#32BCAD"/>
<path d="M442.021 123.307C446.925 123.307 451.538 125.216 455.006 128.683L473.823 147.503C475.178 148.859 477.391 148.864 478.75 147.501L497.498 128.751C500.966 125.285 505.579 123.375 510.483 123.375H512.741L488.928 99.5621C481.512 92.146 469.488 92.146 462.072 99.5621L438.328 123.307L442.021 123.307Z" fill="#32BCAD"/>
<path d="M532.438 143.072L518.048 128.682C517.731 128.809 517.388 128.888 517.026 128.888H510.483C507.1 128.888 503.789 130.26 501.399 132.652L482.651 151.4C480.896 153.155 478.591 154.033 476.288 154.033C473.982 154.033 471.678 153.155 469.924 151.402L451.106 132.583C448.715 130.191 445.404 128.819 442.021 128.819H433.976C433.633 128.819 433.312 128.739 433.01 128.625L418.562 143.072C411.146 150.488 411.146 162.512 418.562 169.928L433.009 184.375C433.312 184.261 433.633 184.18 433.976 184.18H442.021C445.404 184.18 448.715 182.808 451.106 180.416L469.923 161.599C473.324 158.201 479.253 158.2 482.651 161.601L501.399 180.348C503.789 182.74 507.1 184.112 510.483 184.112H517.026C517.388 184.112 517.731 184.191 518.048 184.318L532.438 169.928C539.854 162.511 539.854 150.488 532.438 143.072Z" fill="#32BCAD"/>
</svg>
