<svg width="600" height="400" viewBox="0 0 600 400" fill="none" xmlns="http://www.w3.org/2000/svg">
<rect width="600" height="400" fill="white"/>
<g clip-path="url(#clip0_376_3151)">
<path fill-rule="evenodd" clip-rule="evenodd" d="M304.902 89.3252C305.395 89.4905 315.257 92.7957 326.787 96.6115C338.312 100.49 352.423 105.268 358.21 107.304C363.997 109.34 372.316 112.144 376.696 113.564C381.076 114.984 388.903 117.623 393.95 119.411C399.06 121.204 403.531 123.073 403.937 123.548C404.347 123.959 404.655 124.869 404.543 125.492C404.499 126.058 404.066 126.719 403.606 126.936C403.21 127.158 396.066 129.504 387.892 132.085C379.717 134.666 372.699 137.022 372.297 137.307C371.845 137.693 371.784 139.543 372.114 142.856C372.589 147.256 372.908 148.04 374.955 150.161C376.181 151.459 378.078 153.884 379.024 155.539C380.031 157.199 381.633 160.171 382.49 162.135C383.348 164.099 384.637 167.805 385.33 170.262C386.022 172.719 386.693 176.249 386.811 177.965C386.923 180.566 386.738 181.31 385.72 182.179C385.042 182.758 384.123 183.191 383.687 183.094C383.31 183.064 382.923 183.16 382.908 183.348C382.893 183.537 383.867 185.637 385.062 188.133C386.315 190.698 387.485 194.331 387.852 196.889C388.172 199.253 388.365 202.43 388.242 204.001C388.029 206.702 388.141 206.901 393.431 210.416L395.88 209.027C397.271 208.252 399.085 207.699 399.965 207.769C400.846 207.838 402.001 208.434 402.58 209.113C403.164 209.728 403.568 211.023 403.427 212.024C403.353 212.967 401.388 218.629 399.017 224.639C396.651 230.585 394.173 237.155 393.444 239.185C392.653 241.208 391.913 243.363 391.674 243.977C391.427 244.715 392.006 245.394 393.572 246.402C394.843 247.134 396.842 249.062 397.981 250.669C399.182 252.281 400.31 254.835 400.568 256.373C400.769 257.843 400.871 260.57 400.728 262.392C400.589 264.151 400.066 266.766 399.581 268.119C399.095 269.471 397.722 271.639 396.487 272.87C395.314 274.105 392.897 275.875 391.062 276.68C389.223 277.546 386.634 278.29 385.23 278.433C383.833 278.513 381.516 278.205 377.451 276.81L357.73 287.839C338.929 298.435 337.931 299.053 335.178 302.692C333.558 304.778 331.087 307.239 329.678 308.266C328.273 309.231 325.963 310.44 324.604 310.838C323.302 311.305 320.438 311.522 318.238 311.349C316.1 311.181 313.358 310.649 312.193 310.178C311.033 309.644 308.448 307.923 306.487 306.315C303.458 303.8 300.167 302.213 284.23 295.711C273.929 291.549 263.198 287.228 260.307 286.178C255.203 284.322 255.014 284.307 253.73 285.344C252.989 285.918 250.782 286.631 248.861 286.921C246.941 287.213 244.096 287.178 242.539 286.867C240.977 286.617 238.517 285.728 236.999 284.913C235.482 284.098 233.4 282.417 232.299 281.128C231.262 279.846 229.853 277.649 229.207 276.207C228.355 274.179 228.174 272.458 228.48 268.563C228.787 264.666 229.235 262.994 230.394 261.126C231.257 259.803 233.254 257.747 237.811 254.502L235.333 249.818C233.954 247.243 231.206 241.97 229.171 238.079C227.2 234.194 224.673 229.315 223.569 227.269C222.248 224.762 221.652 222.692 221.766 221.247C221.899 219.55 222.263 218.947 223.366 218.591C224.339 218.288 225.911 218.412 227.637 218.991C230.107 219.754 230.552 219.726 231.778 218.62C233.139 217.4 233.139 217.4 232.326 212.468C231.742 208.629 231.731 206.352 232.353 202.48C232.822 199.735 233.398 196.43 233.623 195.182C234.018 193.38 233.936 192.805 233.182 192.745C232.679 192.706 231.848 192.008 231.404 191.214C230.734 190.087 230.646 187.994 231.007 183.406C231.246 179.568 232.012 175.456 232.853 172.803C233.607 170.46 235.094 166.847 236.074 164.837C237.118 162.833 238.854 160.061 240.037 158.7C241.932 156.32 242.102 155.765 242.552 150.047C242.82 146.654 242.815 143.492 242.598 143.032C242.381 142.573 240.414 141.849 238.175 141.356C235.937 140.864 231.381 140.063 221.932 138.75L221.849 144.624C221.79 147.78 221.559 155.539 221.321 161.78C220.945 172.182 220.982 173.323 222.207 175.443C223.147 177.161 223.315 178.249 222.955 179.611C222.682 180.665 222.171 182.332 221.903 183.322C221.48 184.68 221.873 186.924 223.335 191.654C224.384 195.214 225.556 199.606 225.863 201.337C226.165 203.131 226.205 205.031 225.967 205.645C225.671 206.191 224.073 207.203 222.316 207.823C220.235 208.545 217.932 208.869 215.165 208.651C212.897 208.537 210.334 208.145 209.347 207.814C208.182 207.343 207.719 206.801 207.798 205.795C207.863 204.979 209.284 199.779 210.991 194.16C213.968 184.468 214.076 183.908 213.198 182.195C212.712 181.145 212.405 179.413 212.489 178.345C212.578 177.214 213.127 175.866 213.733 175.408C214.614 174.656 214.733 173.148 214.861 163.484C214.958 157.422 215.103 149.151 215.236 145.052C215.301 141.01 215.254 137.592 215.08 137.389C214.906 137.186 211.608 136.484 207.74 135.8C203.934 135.121 200.206 134.258 199.544 133.827C198.699 133.318 198.439 132.602 198.595 131.413C198.903 129.92 199.639 129.409 204.14 127.676C207.011 126.575 214.649 123.572 221.116 120.983C227.583 118.394 237.113 114.655 242.331 112.663C247.549 110.671 258.256 106.455 266.156 103.347C274.056 100.238 282.734 96.8749 285.406 95.8838C288.083 94.83 293.364 92.843 297.139 91.4962C300.919 90.0866 304.413 89.0971 304.902 89.3252ZM359.004 115.712C359.559 115.882 362.847 116.71 366.26 117.548C369.674 118.385 372.537 118.99 372.609 118.869C372.683 118.749 371.207 118.19 369.23 117.592C367.321 116.936 364.614 115.964 363.271 115.352C361.926 114.741 360.196 114.225 359.379 114.161C358.624 114.102 354.091 111.785 354.524 113.779C352.844 114.532 358.389 115.474 358.94 115.707L359.004 115.712ZM384.137 220.478C384.044 220.849 384.26 222.107 384.889 222.157C385.455 222.201 389.791 219.676 392.111 218.342C394.425 217.07 396.174 215.752 396.078 215.365C395.982 214.979 395.504 214.625 395.006 214.523C394.507 214.42 392.2 215.366 390.029 216.66C387.847 218.265 386.46 219.039 385.682 219.567L384.137 220.478ZM383.252 254.189C383.343 254.638 385.332 257.844 386.206 258.798C387.138 259.82 387.865 260.802 388.605 261.05C389.407 261.302 392.538 262.139 393.245 262.004C393.95 261.87 394.408 258.456 394.457 257.827C394.502 257.261 393.72 255.771 393.025 254.958C392.262 254.202 390.812 253.33 389.821 253.062C388.825 252.856 387.384 252.68 386.682 252.752C385.976 252.885 383.218 253.806 383.252 254.189Z" fill="#030846"/>
<path d="M372.822 224.458C372.074 223.514 372.156 223.268 373.624 222.308C374.558 221.687 375.421 221.185 375.608 221.2C375.797 221.215 376.256 221.82 376.642 222.546C377.245 223.731 377.099 223.973 375.52 224.734C373.811 225.547 373.623 225.532 372.822 224.458Z" fill="#030846"/>
<path d="M316.817 255.471C315.937 255.402 315.589 254.994 315.726 254.057C315.79 253.24 316.198 252.893 316.88 253.073C317.435 253.243 317.956 253.853 317.97 254.487C318.04 255.208 317.655 255.537 316.817 255.471Z" fill="#030846"/>
<path d="M305.289 99.6446C304.739 98.5896 304.456 97.3661 304.669 97.0668C304.946 96.7724 305.347 96.4879 305.662 96.5127C306.039 96.5423 314.552 99.2988 324.599 102.682C334.707 106.069 345.874 109.667 349.462 110.708C353.045 111.812 356.182 112.944 356.534 113.288C356.927 113.656 356.897 114.033 356.445 114.419C355.965 114.887 354.152 114.618 350.492 113.698C347.576 112.962 341.189 111.322 336.229 110.046C331.268 108.77 323.464 106.639 318.88 105.393C314.303 104.084 309.535 102.761 308.365 102.352C306.924 101.902 305.899 100.999 305.289 99.6446Z" fill="#F9F7EF"/>
<path d="M353.194 129.986C352.706 127.356 352.376 125.117 352.386 124.991C352.458 124.87 352.894 124.968 353.45 125.138C354.063 125.376 355.847 126.022 357.447 126.591C360.091 127.558 360.439 127.964 360.789 129.952C361.009 131.17 361.483 133.99 361.818 136.166C362.211 138.409 362.478 140.643 362.438 141.146C362.374 141.963 360.98 141.98 353.436 141.386C348.091 140.965 342.403 140.897 339.34 141.225C336.535 141.51 332.238 142.247 329.722 142.871C327.2 143.557 322.525 145.086 319.32 146.415C316.121 147.68 312.848 149.067 312.117 149.515C310.994 150.122 309.998 149.917 304.951 148.129C301.751 146.992 297.482 145.771 295.548 145.429C292.303 144.857 287.7 143.665 287.804 142.346C287.863 141.592 288.857 139.654 289.11 138.853C289.44 137.867 293.444 139.194 294.765 139.298C295.708 139.372 299.049 140.33 302.186 141.462C305.261 142.589 307.973 143.498 308.162 143.513C308.349 143.528 308.653 138.873 308.851 133.135C308.987 127.392 309.353 122.742 309.667 122.767C309.919 122.787 310.852 126.211 311.792 130.332C312.666 134.51 313.587 138.882 314.283 142.098L317.419 140.828C319.119 140.139 322.691 138.966 325.337 138.289C327.989 137.55 332.17 136.677 334.662 136.368C337.154 136.058 342.484 135.845 346.591 135.916C350.824 135.996 354.001 135.803 354.031 135.426C354.061 135.049 353.683 132.617 353.194 129.986Z" fill="#F9F7EF"/>
<path d="M367.708 160.255C364.388 155.821 361.729 151.818 361.764 151.379C361.794 151.002 359.611 149.934 360.114 149.973C360.617 150.013 364.44 151.147 365.411 151.666C366.32 152.18 368.228 153.658 369.642 154.97C371.052 156.346 373.176 159.105 374.285 161.089C375.457 163.078 376.956 166.547 377.731 168.758C378.437 171.026 379.019 173.285 378.979 173.788C378.935 174.353 378.538 174.575 377.986 174.342C377.56 174.142 373.898 172.306 372.731 171.827C372.458 171.765 372.301 171.706 372.4 171.714C372.447 171.717 372.563 171.758 372.731 171.827C373.499 172.002 375.188 172.205 374.766 171.053C374.251 169.559 371.028 164.69 367.708 160.255Z" fill="#F9F7EF"/>
<path d="M335.958 154.359C337.415 153.526 340.928 152.285 343.765 151.623C346.601 150.961 347.944 149.601 348.263 149.563C348.515 149.582 350.933 152.187 352.274 154.442C353.556 156.629 356.475 161.348 358.79 164.881C361.043 168.41 363.769 172.355 364.749 173.57C365.724 174.848 367.559 176.446 368.825 177.241C370.033 177.969 371.937 179.51 372.994 180.541C373.983 181.631 375.755 184.046 376.806 185.962C377.862 187.816 378.866 190.74 378.605 190.845C378.276 191.009 374.763 188.399 371.888 186.339C368.951 184.274 365.199 181.016 362.89 179.001C360.581 176.986 358.194 174.065 357.229 172.662C356.264 171.258 354.59 168.408 353.491 166.298C352.387 164.251 350.901 162.237 350.239 161.806C349.433 161.321 348.175 161.222 346.467 161.509L346.358 161.525C344.462 161.813 342.259 162.148 338.364 161.159C335.328 160.351 332.631 158.839 332.153 158.486C331.371 157.981 331.386 157.793 332.282 156.852C332.829 156.326 334.5 155.193 335.958 154.359Z" fill="#F9F7EF"/>
<path d="M264.071 163.775C265.342 161.283 267.031 158.318 267.811 157.241C269.087 155.508 269.586 153.626 272.289 153.839C273.982 154.035 277.303 156.407 279.847 157.05C282.39 157.693 286.184 158.76 290.852 161.34L288.219 163.21C286.945 164.121 283.278 166.72 280.026 167.854C274.697 169.648 273.538 168.883 271.12 168.25C268.824 167.69 268.122 167.761 266.969 168.745C266.223 169.382 265.37 170.579 265.175 171.449C264.98 172.319 263.847 175.564 262.096 178.524C259.306 183.426 257.863 184.895 249.85 191.851C243.262 197.592 239.821 201.082 239.765 200.192C239.688 199.554 241.528 195.384 242.697 193.39C243.93 191.4 246.935 187.78 249.401 185.382C252.347 182.516 255.299 178.765 257.836 174.665C260.009 171.169 262.799 166.267 264.071 163.775Z" fill="#F9F7EF"/>
<path d="M243.308 166.681C244.758 164.329 247.322 161.496 249.618 159.654C251.773 157.99 256.022 156.019 256.007 156.207C256.055 156.401 253.227 158.932 252.236 161.067C251.309 163.207 248.949 167.035 247.31 169.372C245.676 171.646 243.59 174.675 242.634 176.37C241.746 178.007 243.528 180.627 241.645 181.449C241.891 182.708 240.008 183.682 239.094 184.053C237.854 184.524 237.801 184.393 238.024 181.566C238.153 179.932 238.84 176.825 239.584 174.607C240.265 172.385 241.935 168.849 243.308 166.681Z" fill="#F9F7EF"/>
<path d="M291.086 177.07C296.249 175.769 302.787 173.881 305.653 172.842C310.207 171.24 311.296 171.073 314.289 171.625C316.16 171.962 319.646 172.679 322.079 173.123C324.506 173.63 328.385 174.188 330.832 174.444C333.285 174.637 336.466 175.204 338.008 175.704C339.555 176.142 341.512 175.664 342.745 176.077C344.654 176.733 345.969 179.05 348.449 182.912C350.138 185.574 352.183 188.517 352.995 189.466C354.51 191.103 356.384 192.648 355.773 199.618C355.318 205.399 354.463 205.096 350.413 217.17L342.458 223.664C338.966 226.234 333.402 230.222 330.117 232.556C326.834 234.89 322.785 238.111 321.074 239.747C319.432 241.325 317.561 243.391 316.028 245.989L312.295 242.786C310.28 241.047 306.019 238.12 302.873 236.291C299.728 234.463 293.179 230.85 288.322 228.254C283.471 225.597 278.551 222.997 277.396 222.4C276.057 221.725 273.223 219.748 271.998 217.628C270.884 215.707 270.361 212.109 269.306 209.434C268.251 206.759 265.818 204.186 264.926 197.035L269.107 190.261C270.65 187.537 272.14 184.683 272.456 183.886C272.704 183.147 274.066 181.99 274.844 181.462C275.341 180.765 276.757 181.446 278.597 180.579C280.374 179.707 285.922 178.37 291.086 177.07Z" fill="#F9F7EF"/>
<path d="M356.186 220.369C359.62 217.731 365.161 213.235 368.484 210.399L374.453 205.304L374.859 210.585L376.855 209.351C378.651 208.227 378.971 208.189 380.231 209.048C381.068 209.682 381.452 210.408 381.146 211.08C380.826 211.94 381.121 212.215 382.315 212.309C383.196 212.378 385.831 213.651 385.927 214.038C386.076 214.555 379.12 217.284 371.179 221.717C363.834 225.818 353.899 230.937 349.605 233.255C345.242 235.631 341.553 237.49 341.233 237.527C340.982 237.508 340.886 237.121 340.988 236.623C341.149 236.194 342.922 234.563 344.932 233.14C346.946 231.654 350.821 229.051 353.494 227.238C356.162 225.488 357.662 223.915 357.625 223.596C357.644 223.345 358.126 223.05 357.748 223.021C357.372 222.991 355.936 223.694 354.164 224.503C352.461 225.254 349.367 226.903 349.125 226.758C348.821 226.607 352.684 223.065 356.186 220.369Z" fill="#F9F7EF"/>
<path d="M353.056 237.552C356.842 235.258 365.654 230.198 372.675 226.198C382.741 220.478 385.632 219.125 386.216 219.74C386.863 220.36 386.833 220.737 386.228 221.195C385.832 221.589 380.259 224.781 373.716 228.529L372.898 228.998C365.95 232.877 357.941 237.367 355.026 239.035C352.117 240.639 349.071 242.36 348.214 242.799C347.42 243.242 346.567 243.617 346.442 243.607C346.253 243.592 346.163 243.143 346.202 242.64C346.242 242.137 349.331 239.851 353.056 237.552Z" fill="#F9F7EF"/>
<path d="M247.996 216.671C247.529 215.37 247.25 214.084 247.328 213.9C247.343 213.711 247.967 213.824 248.701 214.134C249.436 214.445 253.452 216.469 257.642 218.696C261.769 220.916 267.96 224.249 271.294 226.093C274.634 227.872 278.553 230.456 278.906 230.8C279.258 231.144 277.232 230.984 275.245 230.512C272.818 230.005 272.872 229.904 272.891 230.475C272.856 230.914 274.805 232.122 278.406 233.797C282.007 235.47 286.695 237.8 288.821 238.916C290.948 240.032 292.997 241.331 293.339 241.8C293.855 242.472 293.798 242.772 293.111 242.655C292.545 242.61 288.685 241.968 284.634 240.385C280.583 238.801 275.872 236.253 274.02 235.664C272.111 235.009 265.092 233.188 259 231.001C252.909 228.815 246.031 225.558 243.082 224.441C240.075 223.255 236.812 222.773 236.847 222.334C236.828 221.763 238.609 220.991 240.973 221.493C242.646 221.941 244.092 222.054 244.054 221.735C244.074 221.484 243.736 220.951 243.258 220.598C242.548 219.973 242.568 219.721 243.396 218.838C244.22 218.018 244.728 217.995 246.386 218.632C247.493 219.035 248.479 219.366 248.552 219.244C248.683 219.191 248.395 218.031 247.996 216.671Z" fill="#F9F7EF"/>
<path d="M314.967 248.944C316.368 249.623 316.944 249.542 318.406 248.645C319.471 247.971 321.146 247.597 322.592 247.711C324.352 247.849 325.024 248.155 324.97 248.846C324.93 249.349 323.961 250.41 322.886 251.211C321.748 252.006 319.342 252.829 317.494 253C315.196 253.261 313.309 253.113 311.395 252.52C309.848 252.082 308.321 251.393 308.036 250.99C307.647 250.581 307.792 250.065 308.474 249.445C309.022 248.919 310.324 248.452 311.407 248.347C312.428 248.239 314.053 248.493 314.967 248.944Z" fill="#F9F7EF"/>
<path d="M381.912 256.433C381.966 255.741 382.851 254.74 383.142 254.258C383.37 253.77 383.719 253.354 383.97 253.374C384.222 253.394 385.454 254.629 386.728 256.12C388.808 258.623 389.291 258.914 391.696 258.914C393.214 258.907 394.404 259.064 394.389 259.253C394.375 259.442 393.82 260.273 392.73 261.262C390.903 262.762 389.939 263.337 387.894 262.797C386.472 262.369 384.526 261.228 383.551 259.95C382.687 258.871 381.858 257.124 381.912 256.433Z" fill="#F9F7EF"/>
<path d="M314.351 254.957C319.256 255.343 320.214 255.229 322.847 253.918C324.43 253.095 325.941 252.392 326.13 252.406C326.319 252.421 326.284 252.862 326.046 253.475C325.812 254.026 324.461 255.12 323.003 255.954C321.546 256.788 319.13 257.736 317.592 257.994C315.729 258.354 314.873 258.792 314.813 259.546C314.764 260.174 315.024 265.696 315.43 271.797C315.836 277.899 316.408 288.313 316.769 294.98C317.135 301.584 317.386 307.231 317.367 307.482C317.342 307.796 316.535 307.607 315.621 307.155C314.707 306.704 313.509 305.852 312.926 305.237C312.409 304.563 311.884 303.194 311.774 302.174C311.67 301.09 310.929 290.411 310.171 278.338C309.35 266.26 308.768 255.971 308.807 255.47C308.866 254.715 309.887 254.605 314.351 254.957Z" fill="#F9F7EF"/>
<path d="M237.302 264.818C238.213 263.689 239.967 262.31 241.211 261.776C242.648 261.193 244.182 260.998 245.357 261.343C246.348 261.611 247.865 262.426 248.696 263.123C249.759 264.092 250.85 264.656 250.858 266.425C250.717 267.425 249.088 268.591 248.526 269.306C247.896 270.079 246.806 271.067 245.949 271.506C245.155 271.949 243.762 273.19 242.364 273.27C240.458 273.372 237.871 272.896 236.441 271.772C235.248 270.856 235.562 269.234 235.574 268.287C235.633 267.532 236.453 265.953 237.302 264.818Z" fill="#F9F7EF"/>
<path d="M337.546 149.318C339.661 148.978 341.969 148.591 342.67 148.52C343.376 148.386 344.832 148.374 345.843 148.39C346.917 148.411 348.082 148.882 348.478 149.483C349.048 150.286 349.028 150.537 348.384 150.676C347.929 150.83 345.548 151.338 343.032 151.962C340.52 152.523 337.331 153.663 335.868 154.56C334.348 155.389 332.74 156.527 332.193 157.053C331.301 157.931 331.286 158.119 332.069 158.623C332.547 158.977 334.887 159.794 337.31 160.364C339.727 160.996 342.076 161.687 342.555 162.041C343.159 162.405 342.37 162.785 339.926 163.288C337.932 163.7 334.188 163.848 331.359 163.626C327.717 163.276 324.923 162.613 321.186 161.055C318.368 159.884 315.932 158.681 315.836 158.294C315.797 157.975 317.411 156.774 319.458 155.671C321.57 154.573 325.626 152.869 328.492 151.83C331.357 150.791 335.432 149.657 337.546 149.318Z" fill="#C6A484"/>
<path d="M359.41 155.517C358.623 154.254 357.504 152.395 356.95 151.403L355.956 149.555L358.911 149.787C361.301 149.975 361.852 150.208 361.778 151.151C361.733 151.716 364.329 155.714 367.533 160.013C370.8 164.317 373.922 168.862 374.515 170.173C375.108 171.484 375.391 172.708 375.124 172.876C374.795 173.04 373.331 172.356 371.766 171.347C369.774 170.116 367.622 167.733 364.837 163.721C362.627 160.449 360.195 156.78 359.41 155.517Z" fill="#C6A484"/>
<path d="M270.262 152.824C271.14 151.313 271.799 150.985 273.7 150.945C275.03 150.923 276.8 150.936 277.686 150.943C278.503 151.007 281.758 151.453 284.877 152.014C287.928 152.634 292.826 153.905 295.721 154.891C298.554 155.873 301.997 157.155 305.64 159.086L302.065 161.903C300.051 163.388 296.08 165.604 293.21 166.706C290.277 167.803 286.149 168.806 283.856 169.005C281.563 169.204 278.399 169.208 274.061 168.866L279.917 166.798C283.107 165.658 286.781 163.988 290.462 161.432L287.427 159.802C285.726 158.91 282.284 157.627 279.746 156.921C277.14 156.274 273.711 155.625 272.076 155.496C270.442 155.367 269.136 155.075 269.146 154.949C269.161 154.761 269.617 153.785 270.262 152.824Z" fill="#C6A484"/>
<path d="M251.598 161.681C254.277 156.581 254.412 156.465 257.853 155.345C259.736 154.734 261.546 154.244 261.798 154.264C262.049 154.284 262.296 154.367 262.291 154.429C262.286 154.492 260.093 158.24 257.458 162.774C254.766 167.241 251.293 172.785 249.659 175.059C248.025 177.332 245.534 180.045 244.062 181.067C242.585 182.152 241.127 182.986 240.876 182.966C240.624 182.946 240.5 182.114 240.574 181.172C240.648 180.229 241.596 177.838 242.765 175.844C243.939 173.786 245.743 170.957 246.868 169.528C247.998 168.036 250.113 164.472 251.598 161.681Z" fill="#C6A484"/>
<path d="M347.323 167.587L349.517 165.42C350.752 164.189 351.906 163.205 352.031 163.215C352.22 163.23 353.05 164.749 353.912 166.651C354.775 168.552 356.332 171.267 357.302 172.608C358.268 174.012 360.894 176.811 363.203 178.826C365.449 180.836 369.617 184.136 372.433 186.128C375.183 188.178 377.835 189.841 378.275 189.875C378.716 189.91 379.636 191.879 380.339 194.211C380.983 196.474 381.544 198.984 381.49 199.676C381.435 200.367 381.014 200.903 380.574 200.868C380.133 200.833 377.755 199.698 375.262 198.427C372.705 197.151 369.206 194.979 367.42 193.573C365.695 192.173 363.371 190.346 362.357 189.571C361.41 188.738 359.083 186.152 357.307 183.799C355.473 181.379 353.428 178.436 352.641 177.173C351.859 175.847 350.36 173.2 347.323 167.587Z" fill="#C6A484"/>
<path d="M297.583 172.348C299.539 171.616 303.252 169.443 305.868 167.562C308.421 165.677 310.755 164.153 311.011 164.11C311.263 164.13 312.543 164.737 313.751 165.464C315.017 166.259 317.332 167.39 318.923 168.084C320.512 168.778 323.849 169.799 326.334 170.374C329.501 171.129 332.079 171.332 335.005 171.12C337.236 170.916 339.534 170.654 340.115 170.51C340.763 170.309 341.685 171.456 343.112 174.224C344.269 176.401 345.147 178.114 345.021 178.104C344.959 178.099 343.358 177.531 341.511 176.88C339.606 176.161 334.191 175.039 329.375 174.344C324.558 173.649 318.503 172.603 315.955 172.023C311.294 170.961 311.232 170.956 305.766 172.865C302.712 173.889 296.175 175.777 291.205 177.03C286.235 178.283 280.33 180.158 278.103 181.12C275.872 182.146 273.801 182.742 273.569 182.471C273.274 182.194 273.659 180.518 275.569 175.547L281.199 175.547C284.363 175.543 288.446 175.106 290.45 174.568C292.39 174.025 295.57 173.011 297.583 172.348Z" fill="#C6A484"/>
<path d="M261.719 178.576C263.412 175.548 265.062 172.264 265.33 171.273C265.851 169.48 265.851 169.48 266.25 170.84C266.505 171.618 267.248 172.625 267.91 173.057C268.818 173.571 268.963 174.151 268.607 175.451C268.344 176.379 266.107 180.692 263.676 185.052C261.114 189.466 257.536 194.748 255.316 197.23C253.164 199.653 249.613 202.976 247.399 204.572C245.181 206.232 242.377 208.098 241.186 208.763C239.995 209.427 238.877 209.971 238.751 209.961C238.562 209.947 238.565 208.304 238.723 206.293C238.819 204.277 239.205 201.778 239.483 200.662C239.698 199.541 240.134 198.816 240.376 198.962C240.612 199.17 244.86 195.838 249.743 191.669C257.756 184.713 258.929 183.478 261.719 178.576Z" fill="#C6A484"/>
<path d="M351.277 211.563C352.843 206.944 353.486 203.581 353.969 198.245L354.592 191.149L362.514 199.802L361.742 204.8C360.993 209.482 360.838 209.85 358.552 211.566C357.273 212.541 354.595 214.416 352.663 215.655C350.725 216.957 349.195 217.912 349.2 217.849C349.205 217.786 350.124 214.949 351.277 211.563Z" fill="#C6A484"/>
<path d="M259.027 205.211C259.003 204.703 260.517 202.356 262.354 199.908C264.254 197.466 265.922 195.574 266.042 195.647C266.095 195.777 266.435 197.89 266.813 200.323C267.123 202.813 268.349 207.336 269.568 210.34C270.781 213.407 272.405 216.886 273.26 218.091C274.051 219.291 274.596 220.409 274.392 220.583C274.194 220.693 271.39 219.334 262.242 214.189L260.663 210.144C259.767 207.861 259.055 205.655 259.027 205.211Z" fill="#C6A484"/>
<path d="M385.52 213.915C385.771 213.935 386.429 213.608 386.851 213.072C387.33 212.603 388.168 212.416 388.656 212.645C389.082 212.868 389.501 213.154 389.491 213.28C389.54 213.473 386.489 215.257 382.722 217.299C379.018 219.347 369.683 224.619 362.072 228.888C354.393 233.215 347.106 237.383 345.847 238.106C344.583 238.892 341.407 240.665 338.889 242.111C336.308 243.552 333.951 244.568 333.642 244.481C333.274 244.325 332.018 243.404 330.767 242.42C329.574 241.504 328.574 240.54 328.651 240.357C328.661 240.231 330.681 238.683 333.098 236.914C335.51 235.207 340.256 231.976 343.602 229.647C346.944 227.382 349.995 225.599 350.434 225.633C350.875 225.668 352.564 225.105 354.205 224.349C355.841 223.655 357.41 223.021 357.787 223.051C358.101 223.075 358.396 223.35 358.376 223.602C358.419 223.858 356.2 225.518 353.527 227.331C350.859 229.08 346.98 231.747 344.97 233.169C342.955 234.655 341.188 236.223 341.022 236.716C340.925 237.15 341.02 237.538 341.272 237.557C341.523 237.577 345.281 235.66 349.574 233.342C353.937 230.966 363.659 225.599 371.261 221.455C378.867 217.249 385.268 213.895 385.52 213.915Z" fill="#C6A484"/>
<path d="M242.291 226.186C237.269 224.083 235.877 223.279 236.304 222.68C236.798 222.023 237.794 222.229 241.468 223.782C243.982 224.802 251.542 227.61 258.305 230.101C265.073 232.531 272.15 235.048 274.002 235.636C275.848 236.287 280.707 238.061 284.762 239.581C288.813 241.165 292.569 242.472 293.067 242.574C293.759 242.629 293.837 242.446 293.32 241.772C292.978 241.303 290.929 240.004 288.803 238.888C286.676 237.772 281.983 235.506 278.382 233.832C274.786 232.095 271.877 230.474 271.907 230.098C271.937 229.72 273.518 229.719 275.835 230.027C278.586 230.433 281.845 231.638 286.774 234.113C290.612 235.995 295.894 238.813 298.436 240.278C301.036 241.81 303.143 243.178 303.133 243.303C303.054 243.487 302.221 244.433 301.136 245.359C300.108 246.354 299.135 247.478 298.916 247.84C298.683 248.391 293.269 246.447 281.126 241.571C271.497 237.715 260.331 233.296 256.28 231.713C252.229 230.129 245.912 227.609 242.291 226.186Z" fill="#C6A484"/>
<path d="M380.979 260.409C381.098 258.9 381.43 257.093 381.664 256.543C382.114 255.63 382.289 255.833 382.799 257.391C383.154 258.493 383.931 259.882 384.511 260.56C385.095 261.175 386.67 262.058 387.908 262.409C389.953 262.949 390.466 262.863 392.297 261.3C393.513 260.321 394.381 258.935 394.455 257.993C394.55 256.798 394.689 256.62 395.133 257.413C395.404 258.003 395.579 259.788 395.451 261.421C395.322 263.055 394.917 264.984 394.538 265.776C394.165 266.504 393.045 267.87 392.091 268.745C390.797 269.907 389.693 270.263 387.928 270.187C386.545 270.078 384.95 269.447 383.941 268.608C383.056 267.78 381.97 266.304 381.552 265.196C381.128 264.151 380.856 261.98 380.979 260.409Z" fill="#C6A484"/>
<path d="M246.793 270.809C247.936 269.95 249.269 268.284 249.745 267.058L250.547 264.908L251.241 266.543C251.612 267.458 252.054 269.073 252.164 270.093C252.331 271.181 252.047 273.181 251.551 274.661C251.045 276.264 249.911 277.819 248.705 278.672C247.567 279.467 245.737 280.21 244.59 280.308C243.182 280.514 241.761 280.086 239.949 278.995C238.557 278.19 236.915 276.543 236.313 275.357C235.71 274.172 235.278 272.431 235.491 269.729L237.708 271.295C239.452 272.443 240.564 272.784 242.349 272.608C243.69 272.461 245.713 271.672 246.793 270.809Z" fill="#C6A484"/>
<path d="M374.678 119.873C371.637 119.128 370.661 118.672 371.503 118.422C372.151 118.22 372.8 118.018 372.989 118.033C373.181 117.985 375.222 118.588 377.635 119.284C380.047 119.979 382.077 120.708 382.251 120.912C382.426 121.115 381.786 121.191 380.843 121.117C379.837 121.038 377.096 120.506 374.678 119.873Z" fill="#030846"/>
<path d="M299.116 104.625C301.007 102.308 302.965 99.9328 303.517 99.344C304.544 98.35 304.603 98.4178 305.428 100C305.861 100.919 306.677 101.806 307.165 102.034C307.658 102.199 312.237 103.508 317.371 104.987C322.448 106.398 330.996 108.714 336.266 110.078C341.536 111.441 347.614 112.994 349.785 113.544C351.956 114.094 353.556 114.663 353.29 114.831C353.086 115.005 353.166 116.402 353.419 118.003C353.736 119.609 354.056 121.973 354.146 123.245C354.23 124.579 354.209 125.652 354.021 125.637C353.832 125.623 353.112 125.123 352.339 124.494C351.561 123.926 349.367 122.869 347.452 122.275C345.544 121.619 340.487 119.957 336.227 118.61C331.968 117.263 323.512 114.574 306.292 109.109L302.177 110.746C299.955 111.646 297.56 112.342 296.868 112.288C295.925 112.214 295.645 111.749 295.681 110.487C295.761 109.482 297.08 107.183 299.116 104.625Z" fill="#030846"/>
<path d="M260.805 140.516C261.167 138.332 261.448 137.974 263.452 137.437C264.681 137.091 268.212 136.989 268.966 137.049C270.292 137.09 272.261 137.765 272.063 140.279C271.92 142.101 267.854 142.588 267.288 142.544C266.911 142.514 265.136 142.564 260.361 142.947L260.805 140.516Z" fill="#030846"/>
<path d="M255.301 236.401C255.113 236.386 255.031 235.811 255.086 235.12C255.14 234.428 255.373 233.877 255.625 233.897C255.939 233.922 259.434 235.335 263.48 236.982C267.526 238.627 271.866 240.55 273.079 241.214C274.355 241.884 275.37 242.659 275.34 243.037C275.31 243.413 274.85 243.63 274.347 243.591C273.844 243.551 269.416 241.937 264.51 239.971C259.604 238.004 255.49 236.416 255.301 236.401Z" fill="#030846"/>
<path d="M270.694 141.257C270.724 140.88 273.575 139.784 273.848 138.731L273.259 136.744L281.116 137.216C284.763 137.503 289.086 138.033 290.638 138.408C293.37 139.066 293.481 139.264 292.879 140.481C292.5 141.274 292.14 142.636 292.008 143.511C291.914 144.705 291.638 144.999 290.966 144.694C290.478 144.465 286.295 143.757 281.667 143.076C276.782 142.439 270.664 141.634 270.694 141.257Z" fill="#F9F7EF"/>
<path d="M339.195 247.595C339.006 247.581 340.499 246.307 342.455 244.754C344.412 243.2 346.765 242.007 346.892 242.017C346.954 242.022 347.451 242.397 347.396 243.087C347.331 243.925 344.996 244.891 342.802 245.982C341.02 246.917 339.383 247.61 339.195 247.595Z" fill="#F9F7EF"/>
<path d="M307.076 143.152C307.589 143.066 308.013 141.708 308.186 139.509C308.334 137.624 308.583 136.063 308.772 136.077C308.961 136.092 308.953 137.799 308.789 139.872C308.537 143.077 308.304 143.628 307.429 143.496C306.8 143.446 306.685 143.311 307.076 143.152Z" fill="#030846"/>
<path d="M268.218 139.491C268.251 137.47 268.479 136.982 269.505 136.81C270.211 136.676 271.604 136.659 272.678 136.681C274.506 136.761 274.564 136.829 273.908 138.737C273.567 139.849 273.275 141.153 273.245 141.53C273.206 142.033 272.238 142.273 270.666 142.149C268.214 141.956 268.156 141.889 268.218 139.491Z" fill="#030846"/>
<path d="M231.113 227.362C231.065 227.168 231.226 226.739 231.507 226.381C231.793 225.961 232.935 225.925 234.177 226.212C235.425 226.437 240.651 228.366 245.798 230.478C251.314 232.745 255.088 234.624 255.049 235.125C255.019 235.503 254.801 235.865 254.486 235.84C254.235 235.82 248.941 233.95 242.662 231.748C236.387 229.484 231.229 227.497 231.113 227.362Z" fill="#030846"/>
<path d="M383.493 212.594C383.344 212.076 383.64 211.53 384.09 211.44L384.026 211.435C384.481 211.281 385.057 211.2 385.308 211.22C385.628 211.181 386.247 211.357 386.735 211.584C387.47 211.895 387.513 212.151 386.762 212.851C386.34 213.387 385.426 213.757 384.801 213.645C384.236 213.601 383.641 213.112 383.493 212.594Z" fill="#A5A5B9" fill-opacity="0.1"/>
<path d="M386.419 255.838C384.681 253.805 384.068 252.745 384.712 252.607C385.162 252.515 385.766 252.879 385.973 253.464C386.18 254.049 387.097 255.26 387.971 256.213C389.077 257.439 390.237 257.973 391.934 258.107C393.254 258.21 394.183 258.473 394.037 258.714C393.887 259.018 392.677 259.113 391.357 259.009C389.471 258.861 388.562 258.347 386.419 255.838Z" fill="#A5A5B9" fill-opacity="0.1"/>
<path d="M326.478 185.966C327.239 185.141 328.916 183.945 330.233 183.29C331.946 182.413 333.678 182.107 335.941 182.285C337.953 182.443 340.183 183.061 341.506 183.924C342.778 184.656 344.376 186.047 345.066 186.923C345.761 187.736 346.692 189.58 347.096 190.876C347.558 192.24 347.825 194.474 347.716 195.857C347.608 197.239 347.067 199.283 346.543 200.316C345.951 201.408 344.487 203.127 343.208 204.1C341.935 205.012 339.761 206.105 338.343 206.437C336.92 206.83 334.767 206.85 333.583 206.631C332.403 206.348 330.32 205.489 329.049 204.756C327.715 204.019 325.899 202.169 325.065 200.712C324.168 199.251 323.413 196.789 323.348 195.203C323.225 193.55 323.592 191.303 324.145 189.892C324.694 188.544 325.718 186.791 326.478 185.966Z" fill="#030846"/>
<path d="M277.74 187.544C278.559 186.786 280.414 185.731 281.846 185.211C283.279 184.692 285.776 184.319 287.41 184.448C289.108 184.582 291.395 185.267 292.661 186.062C293.932 186.795 295.588 188.253 296.389 189.327C297.191 190.402 298.17 192.439 298.5 193.856C298.884 195.404 298.895 197.681 298.558 199.551C298.133 201.73 297.314 203.31 295.855 204.965C294.682 206.201 292.599 207.744 291.22 208.394C289.511 209.208 287.721 209.447 284.891 209.224C281.622 208.967 280.64 208.573 278.501 206.824C277.076 205.638 275.416 203.42 274.722 201.785C273.975 200.019 273.582 197.775 273.711 196.142C273.825 194.696 274.443 192.469 275.112 191.194C275.714 189.976 276.922 188.301 277.74 187.544Z" fill="#030846"/>
<path d="M317.187 220.194C318.62 219.675 320.542 218.561 321.433 217.683C322.32 216.868 323.7 216.218 324.392 216.272C325.146 216.331 326.065 216.72 326.47 217.195C326.875 217.669 327.091 218.951 327.012 219.956C326.859 221.082 326.045 222.599 324.95 223.651C323.923 224.645 321.787 226.057 320.155 226.688C318.196 227.482 315.694 227.917 312.787 227.878C309.376 227.799 307.573 227.405 304.822 226.176C302.749 225.191 300.894 223.844 300.224 222.716C299.544 221.714 299.077 220.413 299.189 219.789C299.234 219.224 300 218.336 300.919 217.902C302.434 217.136 302.807 217.23 305.711 218.912C307.649 220.013 310.051 220.834 311.749 220.968C313.321 221.091 315.755 220.714 317.187 220.194Z" fill="#030846"/>
<path d="M336.77 189.788C336.009 188.211 336.092 187.965 337.254 186.855C337.943 186.15 339.056 185.669 339.685 185.718C340.376 185.773 341.401 186.423 342.037 187.168C342.675 187.914 343.157 189.026 343.108 189.655C343.126 190.225 342.679 191.075 342.205 191.481C341.73 191.886 340.515 192.043 339.452 191.896C338.204 191.672 337.373 190.974 336.77 189.788Z" fill="#F9F7EF"/>
<path d="M287.246 190.922C287.227 190.352 287.809 189.386 288.488 188.807C289.166 188.228 290.086 187.795 290.526 187.829C291.029 187.869 291.952 188.194 292.614 188.626C293.276 189.057 294.092 189.944 294.352 190.659C294.718 191.637 294.596 192.386 293.815 193.462C293.107 194.418 292.182 194.915 291.176 194.835C290.296 194.766 289.083 194.102 288.446 193.356C287.809 192.61 287.264 191.493 287.246 190.922Z" fill="#F9F7EF"/>
</g>
<defs>
<clipPath id="clip0_376_3151">
<rect width="250" height="250" fill="white" transform="translate(194 75)"/>
</clipPath>
</defs>
</svg>
