<svg width="600" height="400" viewBox="0 0 600 400" fill="none" xmlns="http://www.w3.org/2000/svg">
<rect width="600" height="400" fill="url(#paint0_linear_12_2)"/>
<path d="M62.835 262V236.695H73.51C75.5283 236.695 77.1792 237.016 78.4625 237.657C79.7458 238.299 80.6908 239.192 81.2975 240.335C81.9042 241.467 82.2075 242.773 82.2075 244.255C82.2075 245.585 81.9975 246.711 81.5775 247.632C81.1692 248.542 80.6267 249.301 79.95 249.907C79.285 250.514 78.5558 251.01 77.7625 251.395L82.47 262H77.1675L73.055 252.252H67.9275V262H62.835ZM67.9275 248.315H72.6C73.965 248.315 75.0442 247.947 75.8375 247.212C76.6425 246.477 77.045 245.532 77.045 244.377C77.045 243.211 76.66 242.289 75.89 241.612C75.12 240.936 74.1458 240.597 72.9675 240.597H67.9275V248.315ZM91.5883 262.35C90.445 262.35 89.4067 262.134 88.4733 261.702C87.5517 261.271 86.8225 260.647 86.2858 259.83C85.7492 259.002 85.4808 257.998 85.4808 256.82C85.4808 254.837 86.2217 253.332 87.7033 252.305C89.185 251.267 91.5242 250.73 94.7208 250.695L96.9958 250.66V249.575C96.9958 248.747 96.7508 248.111 96.2608 247.667C95.7825 247.212 95.03 246.991 94.0033 247.002C93.2683 247.014 92.5625 247.189 91.8858 247.527C91.2208 247.866 90.76 248.455 90.5033 249.295H86.2508C86.3208 247.988 86.7 246.915 87.3883 246.075C88.0883 245.223 89.0275 244.593 90.2058 244.185C91.3842 243.765 92.7317 243.555 94.2483 243.555C96.0917 243.555 97.5733 243.788 98.6933 244.255C99.8133 244.71 100.624 245.369 101.126 246.232C101.639 247.084 101.896 248.099 101.896 249.277V262H97.6258L97.2058 258.885C96.5875 260.192 95.8117 261.096 94.8783 261.597C93.9567 262.099 92.86 262.35 91.5883 262.35ZM93.3208 258.99C93.7758 258.99 94.2192 258.908 94.6508 258.745C95.0942 258.57 95.4908 258.342 95.8408 258.062C96.1908 257.771 96.465 257.444 96.6633 257.082C96.8733 256.721 96.9842 256.347 96.9958 255.962V253.285L95.1583 253.32C94.3067 253.332 93.5133 253.437 92.7783 253.635C92.0433 253.822 91.4483 254.131 90.9933 254.562C90.55 254.994 90.3283 255.577 90.3283 256.312C90.3283 257.152 90.6142 257.812 91.1858 258.29C91.7692 258.757 92.4808 258.99 93.3208 258.99ZM92.3758 241.787L95.9808 236.695H101.248L96.0508 241.787H92.3758ZM112.883 262.35C110.456 262.35 108.566 261.516 107.213 259.847C105.859 258.167 105.183 255.834 105.183 252.847C105.183 250.957 105.457 249.318 106.005 247.93C106.553 246.542 107.364 245.468 108.438 244.71C109.511 243.94 110.823 243.555 112.375 243.555C113.028 243.555 113.635 243.631 114.195 243.782C114.767 243.922 115.286 244.121 115.753 244.377C116.219 244.634 116.628 244.932 116.978 245.27C117.328 245.608 117.613 245.97 117.835 246.355V235.995H122.963V262H119.253L118.675 258.29C118.5 258.792 118.267 259.282 117.975 259.76C117.695 260.238 117.328 260.676 116.873 261.072C116.418 261.457 115.858 261.767 115.193 262C114.539 262.233 113.769 262.35 112.883 262.35ZM114.003 258.675C115.286 258.675 116.243 258.226 116.873 257.327C117.514 256.429 117.835 254.912 117.835 252.777C117.823 251.541 117.678 250.514 117.398 249.697C117.118 248.881 116.698 248.274 116.138 247.877C115.589 247.469 114.889 247.265 114.038 247.265C112.929 247.265 112.008 247.691 111.273 248.542C110.538 249.382 110.17 250.794 110.17 252.777C110.17 254.796 110.514 256.283 111.203 257.24C111.891 258.197 112.824 258.675 114.003 258.675ZM127.489 262V243.905H132.372V262H127.489ZM127.437 241.315V236.712H132.407V241.315H127.437ZM144.66 262.35C142.887 262.35 141.341 261.971 140.023 261.212C138.716 260.454 137.701 259.381 136.978 257.992C136.266 256.604 135.91 254.959 135.91 253.057C135.91 251.156 136.266 249.493 136.978 248.07C137.701 246.647 138.716 245.538 140.023 244.745C141.341 243.952 142.893 243.555 144.678 243.555C146.463 243.555 148.008 243.946 149.315 244.727C150.622 245.497 151.631 246.594 152.343 248.017C153.054 249.441 153.41 251.121 153.41 253.057C153.41 254.877 153.06 256.487 152.36 257.887C151.672 259.276 150.674 260.367 149.368 261.16C148.073 261.953 146.503 262.35 144.66 262.35ZM144.678 258.552C145.576 258.552 146.299 258.29 146.848 257.765C147.396 257.24 147.793 256.552 148.038 255.7C148.283 254.837 148.405 253.897 148.405 252.882C148.405 251.926 148.294 251.022 148.073 250.17C147.851 249.318 147.466 248.63 146.918 248.105C146.369 247.58 145.623 247.317 144.678 247.317C143.779 247.317 143.05 247.568 142.49 248.07C141.942 248.56 141.539 249.231 141.283 250.082C141.026 250.922 140.898 251.856 140.898 252.882C140.898 253.827 141.014 254.737 141.248 255.612C141.481 256.476 141.872 257.182 142.42 257.73C142.968 258.278 143.721 258.552 144.678 258.552ZM172.8 262.35C171.003 262.35 169.422 261.977 168.057 261.23C166.704 260.472 165.648 259.404 164.89 258.027C164.131 256.651 163.752 255.029 163.752 253.163C163.752 251.354 164.096 249.727 164.785 248.28C165.485 246.822 166.488 245.672 167.795 244.832C169.101 243.981 170.682 243.555 172.537 243.555C174.381 243.555 175.926 243.946 177.175 244.727C178.423 245.497 179.368 246.577 180.01 247.965C180.651 249.342 180.972 250.934 180.972 252.742V254.125H168.81C168.81 255.047 168.961 255.852 169.265 256.54C169.568 257.217 170.006 257.742 170.577 258.115C171.161 258.477 171.861 258.657 172.677 258.657C173.552 258.657 174.316 258.471 174.97 258.097C175.623 257.724 176.084 257.112 176.352 256.26H180.955C180.745 257.543 180.231 258.64 179.415 259.55C178.598 260.46 177.606 261.154 176.44 261.632C175.273 262.111 174.06 262.35 172.8 262.35ZM168.81 251.08H176.195C176.195 250.357 176.055 249.692 175.775 249.085C175.506 248.478 175.098 248 174.55 247.65C174.013 247.3 173.336 247.125 172.52 247.125C171.738 247.125 171.067 247.317 170.507 247.702C169.959 248.076 169.533 248.566 169.23 249.172C168.938 249.779 168.798 250.415 168.81 251.08ZM193.094 262V236.695H198.186V262H193.094ZM203.213 262V243.905H208.235V246.46C208.515 246.017 208.877 245.591 209.32 245.182C209.775 244.762 210.347 244.418 211.035 244.15C211.724 243.882 212.54 243.747 213.485 243.747C214.594 243.747 215.626 243.963 216.583 244.395C217.551 244.827 218.333 245.509 218.928 246.442C219.523 247.364 219.82 248.572 219.82 250.065V262H214.71V250.695C214.71 249.715 214.419 248.98 213.835 248.49C213.252 248 212.54 247.755 211.7 247.755C211.14 247.755 210.598 247.854 210.073 248.052C209.56 248.251 209.14 248.548 208.813 248.945C208.486 249.342 208.323 249.832 208.323 250.415V262H203.213ZM231.116 262.193C229.517 262.193 228.281 261.988 227.406 261.58C226.542 261.172 225.941 260.6 225.603 259.865C225.276 259.13 225.113 258.278 225.113 257.31V247.457H222.173V243.905H225.271L226.566 238.445H230.206V243.887H234.231V247.457H230.206L230.241 257.1C230.241 257.543 230.293 257.876 230.398 258.097C230.515 258.307 230.69 258.447 230.923 258.517C231.168 258.576 231.477 258.605 231.851 258.605H234.283V261.755C234.038 261.86 233.671 261.959 233.181 262.053C232.691 262.146 232.002 262.193 231.116 262.193ZM245.603 262.35C243.806 262.35 242.225 261.977 240.86 261.23C239.507 260.472 238.451 259.404 237.693 258.027C236.934 256.651 236.555 255.029 236.555 253.163C236.555 251.354 236.899 249.727 237.588 248.28C238.288 246.822 239.291 245.672 240.598 244.832C241.904 243.981 243.485 243.555 245.34 243.555C247.183 243.555 248.729 243.946 249.978 244.727C251.226 245.497 252.171 246.577 252.813 247.965C253.454 249.342 253.775 250.934 253.775 252.742V254.125H241.613C241.613 255.047 241.764 255.852 242.068 256.54C242.371 257.217 242.808 257.742 243.38 258.115C243.963 258.477 244.663 258.657 245.48 258.657C246.355 258.657 247.119 258.471 247.773 258.097C248.426 257.724 248.887 257.112 249.155 256.26H253.758C253.548 257.543 253.034 258.64 252.218 259.55C251.401 260.46 250.409 261.154 249.243 261.632C248.076 262.111 246.863 262.35 245.603 262.35ZM241.613 251.08H248.998C248.998 250.357 248.858 249.692 248.578 249.085C248.309 248.478 247.901 248 247.353 247.65C246.816 247.3 246.139 247.125 245.323 247.125C244.541 247.125 243.87 247.317 243.31 247.702C242.762 248.076 242.336 248.566 242.033 249.172C241.741 249.779 241.601 250.415 241.613 251.08ZM263.231 262.315C261.901 262.315 260.845 262.158 260.064 261.842C259.282 261.527 258.704 261.113 258.331 260.6C257.958 260.075 257.719 259.497 257.614 258.867C257.509 258.226 257.456 257.578 257.456 256.925V235.995H262.461V256.295C262.461 256.96 262.601 257.502 262.881 257.922C263.173 258.331 263.715 258.582 264.509 258.675L265.366 258.727V261.877C265.016 261.994 264.66 262.093 264.299 262.175C263.937 262.268 263.581 262.315 263.231 262.315ZM268.856 262V243.905H273.739V262H268.856ZM268.804 241.315V236.712H273.774V241.315H268.804ZM286.398 267.985C283.178 267.985 280.728 267.577 279.048 266.76C277.38 265.943 276.546 264.87 276.546 263.54C276.546 262.922 276.703 262.403 277.018 261.982C277.345 261.562 277.724 261.23 278.156 260.985C278.599 260.728 279.001 260.536 279.363 260.407C279.736 260.267 279.97 260.174 280.063 260.127C279.876 260.022 279.602 259.871 279.241 259.672C278.891 259.462 278.57 259.182 278.278 258.832C277.986 258.471 277.841 258.004 277.841 257.432C277.841 256.791 278.144 256.196 278.751 255.647C279.369 255.099 280.302 254.72 281.551 254.51C280.361 253.95 279.451 253.192 278.821 252.235C278.202 251.278 277.893 250.298 277.893 249.295C277.893 248.105 278.266 247.084 279.013 246.232C279.76 245.381 280.781 244.733 282.076 244.29C283.371 243.847 284.835 243.625 286.468 243.625C287.705 243.625 288.72 243.759 289.513 244.027C290.318 244.284 291.059 244.622 291.736 245.042C292.004 244.937 292.354 244.803 292.786 244.64C293.229 244.465 293.707 244.278 294.221 244.08C294.746 243.87 295.253 243.666 295.743 243.467C296.233 243.257 296.671 243.071 297.056 242.907L297.021 246.862L293.906 247.37C294.022 247.685 294.116 248.023 294.186 248.385C294.256 248.747 294.291 249.044 294.291 249.277C294.291 250.327 293.981 251.307 293.363 252.217C292.756 253.127 291.846 253.862 290.633 254.422C289.42 254.982 287.909 255.262 286.101 255.262C285.891 255.262 285.599 255.257 285.226 255.245C284.852 255.233 284.549 255.216 284.316 255.192C283.639 255.227 283.166 255.315 282.898 255.455C282.641 255.595 282.513 255.758 282.513 255.945C282.513 256.225 282.776 256.412 283.301 256.505C283.826 256.587 284.619 256.662 285.681 256.732C286.066 256.756 286.591 256.785 287.256 256.82C287.921 256.855 288.65 256.902 289.443 256.96C291.66 257.112 293.311 257.66 294.396 258.605C295.492 259.538 296.041 260.717 296.041 262.14C296.041 263.832 295.236 265.226 293.626 266.323C292.027 267.431 289.618 267.985 286.398 267.985ZM287.221 265.133C288.632 265.133 289.641 264.958 290.248 264.608C290.866 264.258 291.176 263.756 291.176 263.103C291.176 262.554 290.936 262.111 290.458 261.772C289.991 261.422 289.315 261.218 288.428 261.16L284.281 260.88C283.732 260.857 283.254 260.938 282.846 261.125C282.437 261.312 282.116 261.568 281.883 261.895C281.661 262.222 281.551 262.572 281.551 262.945C281.551 263.703 282.011 264.258 282.933 264.608C283.855 264.958 285.284 265.133 287.221 265.133ZM286.258 252.41C287.226 252.41 288.002 252.147 288.586 251.622C289.169 251.086 289.461 250.362 289.461 249.452C289.461 248.507 289.169 247.749 288.586 247.177C288.002 246.606 287.226 246.32 286.258 246.32C285.29 246.32 284.508 246.606 283.913 247.177C283.318 247.749 283.021 248.507 283.021 249.452C283.021 250.351 283.306 251.068 283.878 251.605C284.461 252.142 285.255 252.41 286.258 252.41ZM307.878 262.35C306.081 262.35 304.5 261.977 303.135 261.23C301.782 260.472 300.726 259.404 299.968 258.027C299.21 256.651 298.83 255.029 298.83 253.163C298.83 251.354 299.175 249.727 299.863 248.28C300.563 246.822 301.566 245.672 302.873 244.832C304.18 243.981 305.76 243.555 307.615 243.555C309.459 243.555 311.005 243.946 312.253 244.727C313.501 245.497 314.446 246.577 315.088 247.965C315.73 249.342 316.05 250.934 316.05 252.742V254.125H303.888C303.888 255.047 304.04 255.852 304.343 256.54C304.646 257.217 305.084 257.742 305.655 258.115C306.239 258.477 306.939 258.657 307.755 258.657C308.63 258.657 309.395 258.471 310.048 258.097C310.701 257.724 311.162 257.112 311.43 256.26H316.033C315.823 257.543 315.31 258.64 314.493 259.55C313.676 260.46 312.685 261.154 311.518 261.632C310.351 262.111 309.138 262.35 307.878 262.35ZM303.888 251.08H311.273C311.273 250.357 311.133 249.692 310.853 249.085C310.585 248.478 310.176 248 309.628 247.65C309.091 247.3 308.415 247.125 307.598 247.125C306.816 247.125 306.145 247.317 305.585 247.702C305.037 248.076 304.611 248.566 304.308 249.172C304.016 249.779 303.876 250.415 303.888 251.08ZM301.263 241.787L305.883 237.255H309.418L313.915 241.787H309.925L307.615 239.337L305.06 241.787H301.263ZM319.731 262V243.905H324.754V246.46C325.034 246.017 325.396 245.591 325.839 245.182C326.294 244.762 326.866 244.418 327.554 244.15C328.242 243.882 329.059 243.747 330.004 243.747C331.112 243.747 332.145 243.963 333.101 244.395C334.07 244.827 334.851 245.509 335.446 246.442C336.041 247.364 336.339 248.572 336.339 250.065V262H331.229V250.695C331.229 249.715 330.937 248.98 330.354 248.49C329.771 248 329.059 247.755 328.219 247.755C327.659 247.755 327.116 247.854 326.591 248.052C326.078 248.251 325.658 248.548 325.331 248.945C325.005 249.342 324.841 249.832 324.841 250.415V262H319.731ZM348.354 262.35C346.674 262.35 345.174 261.977 343.856 261.23C342.538 260.483 341.499 259.416 340.741 258.027C339.994 256.627 339.621 254.959 339.621 253.022C339.621 251.156 339.983 249.511 340.706 248.087C341.429 246.664 342.444 245.556 343.751 244.762C345.069 243.957 346.604 243.555 348.354 243.555C349.87 243.555 351.177 243.864 352.274 244.482C353.382 245.101 354.251 245.935 354.881 246.985C355.523 248.035 355.89 249.207 355.984 250.502H351.731C351.649 250.024 351.48 249.552 351.224 249.085C350.967 248.607 350.605 248.216 350.139 247.912C349.672 247.597 349.089 247.44 348.389 247.44C347.199 247.44 346.23 247.901 345.484 248.822C344.749 249.732 344.381 251.121 344.381 252.987C344.381 254.749 344.743 256.149 345.466 257.187C346.189 258.214 347.199 258.727 348.494 258.727C349.182 258.727 349.754 258.558 350.209 258.22C350.675 257.882 351.037 257.479 351.294 257.012C351.55 256.534 351.714 256.091 351.784 255.682H355.931C355.849 256.931 355.488 258.062 354.846 259.077C354.204 260.081 353.329 260.88 352.221 261.475C351.124 262.058 349.835 262.35 348.354 262.35ZM359.569 262V243.905H364.452V262H359.569ZM359.517 241.315V236.712H364.487V241.315H359.517ZM374.22 262.35C373.077 262.35 372.038 262.134 371.105 261.702C370.183 261.271 369.454 260.647 368.918 259.83C368.381 259.002 368.113 257.998 368.113 256.82C368.113 254.837 368.853 253.332 370.335 252.305C371.817 251.267 374.156 250.73 377.353 250.695L379.628 250.66V249.575C379.628 248.747 379.383 248.111 378.893 247.667C378.414 247.212 377.662 246.991 376.635 247.002C375.9 247.014 375.194 247.189 374.518 247.527C373.853 247.866 373.392 248.455 373.135 249.295H368.883C368.953 247.988 369.332 246.915 370.02 246.075C370.72 245.223 371.659 244.593 372.838 244.185C374.016 243.765 375.363 243.555 376.88 243.555C378.723 243.555 380.205 243.788 381.325 244.255C382.445 244.71 383.256 245.369 383.758 246.232C384.271 247.084 384.528 248.099 384.528 249.277V262H380.258L379.838 258.885C379.219 260.192 378.443 261.096 377.51 261.597C376.588 262.099 375.492 262.35 374.22 262.35ZM375.953 258.99C376.408 258.99 376.851 258.908 377.283 258.745C377.726 258.57 378.123 258.342 378.473 258.062C378.823 257.771 379.097 257.444 379.295 257.082C379.505 256.721 379.616 256.347 379.628 255.962V253.285L377.79 253.32C376.938 253.332 376.145 253.437 375.41 253.635C374.675 253.822 374.08 254.131 373.625 254.562C373.182 254.994 372.96 255.577 372.96 256.312C372.96 257.152 373.246 257.812 373.818 258.29C374.401 258.757 375.113 258.99 375.953 258.99ZM395.342 262L404.39 236.695H409.797L418.845 262H413.752L411.687 256.137H402.57L400.47 262H395.342ZM403.725 251.675H410.445L407.102 241.612L403.725 251.675ZM421.997 262V243.905H426.915V248.192C427.206 247.271 427.615 246.466 428.14 245.777C428.676 245.077 429.324 244.535 430.082 244.15C430.84 243.753 431.698 243.555 432.655 243.555C432.818 243.555 432.97 243.567 433.11 243.59C433.261 243.602 433.372 243.625 433.442 243.66V248.525C433.337 248.478 433.209 248.449 433.057 248.437C432.917 248.426 432.789 248.414 432.672 248.402C431.669 248.321 430.811 248.35 430.1 248.49C429.388 248.63 428.81 248.869 428.367 249.207C427.924 249.546 427.603 249.96 427.405 250.45C427.206 250.94 427.107 251.488 427.107 252.095V262H421.997ZM444.055 262.193C442.457 262.193 441.22 261.988 440.345 261.58C439.482 261.172 438.881 260.6 438.543 259.865C438.216 259.13 438.053 258.278 438.053 257.31V247.457H435.113V243.905H438.21L439.505 238.445H443.145V243.887H447.17V247.457H443.145L443.18 257.1C443.18 257.543 443.233 257.876 443.338 258.097C443.454 258.307 443.629 258.447 443.863 258.517C444.108 258.576 444.417 258.605 444.79 258.605H447.223V261.755C446.978 261.86 446.61 261.959 446.12 262.053C445.63 262.146 444.942 262.193 444.055 262.193ZM450.863 262V243.905H455.746V262H450.863ZM450.811 241.315V236.712H455.781V241.315H450.811ZM462.172 262V247.457H458.829V243.905H462.172V241.297C462.172 239.839 462.603 238.707 463.467 237.902C464.33 237.097 465.543 236.695 467.107 236.695H471.254L471.289 240.09H468.892C468.25 240.09 467.807 240.253 467.562 240.58C467.317 240.895 467.194 241.42 467.194 242.155V243.905H471.114V247.457H467.299V262H462.172ZM474.072 262V243.905H478.954V262H474.072ZM474.019 241.315V236.712H478.989V241.315H474.019ZM491.225 262.35C489.545 262.35 488.045 261.977 486.727 261.23C485.409 260.483 484.37 259.416 483.612 258.027C482.865 256.627 482.492 254.959 482.492 253.022C482.492 251.156 482.854 249.511 483.577 248.087C484.3 246.664 485.315 245.556 486.622 244.762C487.94 243.957 489.475 243.555 491.225 243.555C492.741 243.555 494.048 243.864 495.145 244.482C496.253 245.101 497.122 245.935 497.752 246.985C498.394 248.035 498.761 249.207 498.855 250.502H494.602C494.52 250.024 494.351 249.552 494.095 249.085C493.838 248.607 493.476 248.216 493.01 247.912C492.543 247.597 491.96 247.44 491.26 247.44C490.07 247.44 489.101 247.901 488.355 248.822C487.62 249.732 487.252 251.121 487.252 252.987C487.252 254.749 487.614 256.149 488.337 257.187C489.06 258.214 490.07 258.727 491.365 258.727C492.053 258.727 492.625 258.558 493.08 258.22C493.546 257.882 493.908 257.479 494.165 257.012C494.421 256.534 494.585 256.091 494.655 255.682H498.802C498.72 256.931 498.359 258.062 497.717 259.077C497.075 260.081 496.2 260.88 495.092 261.475C493.995 262.058 492.706 262.35 491.225 262.35ZM502.44 262V243.905H507.323V262H502.44ZM502.388 241.315V236.712H507.358V241.315H502.388ZM517.091 262.35C515.948 262.35 514.91 262.134 513.976 261.702C513.055 261.271 512.325 260.647 511.789 259.83C511.252 259.002 510.984 257.998 510.984 256.82C510.984 254.837 511.725 253.332 513.206 252.305C514.688 251.267 517.027 250.73 520.224 250.695L522.499 250.66V249.575C522.499 248.747 522.254 248.111 521.764 247.667C521.285 247.212 520.533 246.991 519.506 247.002C518.771 247.014 518.065 247.189 517.389 247.527C516.724 247.866 516.263 248.455 516.006 249.295H511.754C511.824 247.988 512.203 246.915 512.891 246.075C513.591 245.223 514.53 244.593 515.709 244.185C516.887 243.765 518.235 243.555 519.751 243.555C521.595 243.555 523.076 243.788 524.196 244.255C525.316 244.71 526.127 245.369 526.629 246.232C527.142 247.084 527.399 248.099 527.399 249.277V262H523.129L522.709 258.885C522.09 260.192 521.315 261.096 520.381 261.597C519.46 262.099 518.363 262.35 517.091 262.35ZM518.824 258.99C519.279 258.99 519.722 258.908 520.154 258.745C520.597 258.57 520.994 258.342 521.344 258.062C521.694 257.771 521.968 257.444 522.166 257.082C522.376 256.721 522.487 256.347 522.499 255.962V253.285L520.661 253.32C519.81 253.332 519.016 253.437 518.281 253.635C517.546 253.822 516.951 254.131 516.496 254.562C516.053 254.994 515.831 255.577 515.831 256.312C515.831 257.152 516.117 257.812 516.689 258.29C517.272 258.757 517.984 258.99 518.824 258.99ZM537.318 262.315C535.988 262.315 534.932 262.158 534.15 261.842C533.369 261.527 532.791 261.113 532.418 260.6C532.045 260.075 531.805 259.497 531.7 258.867C531.595 258.226 531.543 257.578 531.543 256.925V235.995H536.548V256.295C536.548 256.96 536.688 257.502 536.968 257.922C537.26 258.331 537.802 258.582 538.595 258.675L539.453 258.727V261.877C539.103 261.994 538.747 262.093 538.385 262.175C538.024 262.268 537.668 262.315 537.318 262.315Z" fill="white"/>
<path d="M122.48 206V148.16H161.84L161.8 157.92H134.24V172.44H158.12V182H134.24V206H122.48ZM171.543 206V148.16H211.263L211.223 158H183.263V172.04H207.543V181.68H183.183V196.04L211.663 196.08V206H171.543ZM245.571 206.8C240.185 206.8 235.531 205.547 231.611 203.04C227.691 200.533 224.665 197.013 222.531 192.48C220.425 187.947 219.371 182.653 219.371 176.6C219.371 170.52 220.425 165.307 222.531 160.96C224.638 156.587 227.651 153.227 231.571 150.88C235.491 148.533 240.158 147.36 245.571 147.36C249.918 147.36 253.785 148.24 257.171 150C260.585 151.733 263.331 154.107 265.411 157.12C267.518 160.133 268.758 163.533 269.131 167.32H256.891C256.518 165.32 255.838 163.547 254.851 162C253.865 160.427 252.571 159.2 250.971 158.32C249.371 157.413 247.451 156.96 245.211 156.96C242.518 156.96 240.198 157.613 238.251 158.92C236.305 160.227 234.811 162.333 233.771 165.24C232.731 168.147 232.211 171.987 232.211 176.76C232.211 183.96 233.358 189.173 235.651 192.4C237.971 195.6 241.158 197.2 245.211 197.2C247.451 197.2 249.371 196.693 250.971 195.68C252.571 194.64 253.865 193.28 254.851 191.6C255.838 189.893 256.518 188.027 256.891 186H269.131C268.785 188.747 268.118 191.373 267.131 193.88C266.145 196.36 264.745 198.573 262.931 200.52C261.118 202.467 258.785 204 255.931 205.12C253.078 206.24 249.625 206.8 245.571 206.8ZM273.356 206L294.036 148.16H306.396L327.076 206H315.436L310.716 192.6H289.876L285.076 206H273.356ZM292.516 182.4H307.876L300.236 159.4L292.516 182.4ZM335.761 206V148.16H360.161C364.775 148.16 368.548 148.893 371.481 150.36C374.415 151.827 376.575 153.867 377.961 156.48C379.348 159.067 380.041 162.053 380.041 165.44C380.041 168.48 379.561 171.053 378.601 173.16C377.668 175.24 376.428 176.973 374.881 178.36C373.361 179.747 371.695 180.88 369.881 181.76L380.641 206H368.521L359.121 183.72H347.401V206H335.761ZM347.401 174.72H358.081C361.201 174.72 363.668 173.88 365.481 172.2C367.321 170.52 368.241 168.36 368.241 165.72C368.241 163.053 367.361 160.947 365.601 159.4C363.841 157.853 361.615 157.08 358.921 157.08H347.401V174.72ZM403.203 206V158.56H385.723V148.16H432.003V158.56H414.923V206H403.203ZM439.98 206V148.16H479.7L479.66 158H451.7V172.04H475.98V181.68H451.62V196.04L480.1 196.08V206H439.98Z" fill="white"/>
<defs>
<linearGradient id="paint0_linear_12_2" x1="0" y1="0" x2="600" y2="400" gradientUnits="userSpaceOnUse">
<stop stop-color="#EC7449"/>
<stop offset="0.732347" stop-color="#81422D"/>
<stop offset="1" stop-color="#583228"/>
</linearGradient>
</defs>
</svg>
